<svg class="logo-svg" viewBox="0 0 680 400" xmlns="http://www.w3.org/2000/svg">
  <defs>
    <style>
      @import url('https://fonts.googleapis.com/css2?family=Cormorant+Garamond:ital,wght@1,300;1,400;1,600&amp;family=DM+Mono:wght@300;400;500&amp;display=swap');
      .f-cormorant { font-family: 'Cormorant Garamond', Georgia, serif; }
      .f-mono      { font-family: 'DM Mono', 'Courier New', monospace; }
    </style>
  </defs>
  <rect width="680" height="400" fill="#0A0A08"/>
  <rect x="2" y="2" width="676" height="396" fill="none" stroke="#C8920A" stroke-width="1"/>
  <line x1="2"   y1="52"  x2="36"  y2="52"  stroke="#C8920A" stroke-width="0.5"/>
  <line x1="52"  y1="2"   x2="52"  y2="36"  stroke="#C8920A" stroke-width="0.5"/>
  <line x1="678" y1="52"  x2="644" y2="52"  stroke="#C8920A" stroke-width="0.5"/>
  <line x1="628" y1="2"   x2="628" y2="36"  stroke="#C8920A" stroke-width="0.5"/>
  <line x1="2"   y1="348" x2="36"  y2="348" stroke="#C8920A" stroke-width="0.5"/>
  <line x1="52"  y1="398" x2="52"  y2="364" stroke="#C8920A" stroke-width="0.5"/>
  <line x1="678" y1="348" x2="644" y2="348" stroke="#C8920A" stroke-width="0.5"/>
  <line x1="628" y1="398" x2="628" y2="364" stroke="#C8920A" stroke-width="0.5"/>
  <text x="68" y="38" class="f-mono" font-size="15" font-weight="400" fill="#C8920A" letter-spacing="3">24h</text>
  <circle cx="592" cy="38" r="18" fill="#4A7A28"/>
  <circle cx="585" cy="33" r="15" fill="#0A0A08"/>
  <rect x="328" y="22" width="24" height="10" rx="1.5" fill="#F0EBE0" opacity="0.2"/>
  <rect x="323" y="31" width="34" height="10" rx="1" fill="#F0EBE0" opacity="0.18"/>
  <path d="M316 44 Q312 58 311 74 L311 138 Q311 140 313 140 L367 140 Q369 140 369 138 L369 74 Q368 58 364 44 Z" fill="#F0EBE0" opacity="0.05"/>
  <path d="M316 44 Q312 58 311 74 L311 138 Q311 140 313 140 L367 140 Q369 140 369 138 L369 74 Q368 58 364 44 Z" fill="none" stroke="#F0EBE0" stroke-width="0.8" opacity="0.35"/>
  <path d="M311 110 L369 110 L369 138 Q369 140 367 140 L313 140 Q311 140 311 138 Z" fill="#C8920A" opacity="0.45"/>
  <line x1="319" y1="52" x2="319" y2="130" stroke="#F0EBE0" stroke-width="0.5" opacity="0.12"/>
  <rect x="318" y="82" width="44" height="26" rx="1" fill="none" stroke="#F0EBE0" stroke-width="0.4" opacity="0.2"/>
  <line x1="44" y1="158" x2="636" y2="158" stroke="#252520" stroke-width="0.5"/>
  <text x="340" y="196" class="f-mono" font-size="13" font-weight="300" fill="#8A8478" letter-spacing="12" text-anchor="middle">DON</text>
  <text x="340" y="302" class="f-cormorant" font-size="110" font-style="italic" font-weight="300" fill="#F0EBE0" letter-spacing="-1" text-anchor="middle">Héctor</text>
  <line x1="44" y1="322" x2="636" y2="322" stroke="#C8920A" stroke-width="0.5" opacity="0.4"/>
  <text x="340" y="370" class="f-cormorant" font-size="42" font-style="italic" font-weight="300" fill="#C8920A" letter-spacing="2" text-anchor="middle">Licorera</text>
  <circle cx="168" cy="358" r="1.5" fill="#C8920A" opacity="0.5"/>
  <circle cx="512" cy="358" r="1.5" fill="#C8920A" opacity="0.5"/>
</svg>
